<?xml version="1.0" encoding="UTF-8"?>
<svg xmlns="http://www.w3.org/2000/svg" xmlns:xlink="http://www.w3.org/1999/xlink" width="574.2pt" height="648.1pt" viewBox="0 0 574.2 648.1" version="1.1">
<g id="surface1">
<path style=" stroke:none;fill-rule:evenodd;fill:rgb(92.96875%,10.984802%,14.109802%);fill-opacity:1;" d="M 301.367188 81.714844 C 455.585938 89.574219 574.234375 220.964844 566.375 375.183594 C 558.515625 529.402344 427.125 648.050781 272.90625 640.191406 C 118.6875 632.332031 0.0390625 500.941406 7.898438 346.722656 C 15.757813 192.503906 147.148438 73.855469 301.367188 81.714844 Z M 301.367188 81.714844 "/>
<path style=" stroke:none;fill-rule:evenodd;fill:rgb(100%,100%,100%);fill-opacity:1;" d="M 297.648438 154.6875 C 411.566406 160.492188 499.207031 257.546875 493.402344 371.464844 C 487.597656 485.382813 390.542969 573.023438 276.625 567.21875 C 162.707031 561.414063 75.066406 464.359375 80.871094 350.441406 C 86.679688 236.523438 183.734375 148.882813 297.648438 154.6875 Z M 297.648438 154.6875 "/>
<path style=" stroke:none;fill-rule:evenodd;fill:rgb(13.719177%,12.156677%,12.547302%);fill-opacity:1;" d="M 368.792969 282.179688 C 403.527344 273.003906 424.660156 244.042969 419.945313 207.980469 L 418.332031 195.617188 L 410.570313 197.394531 C 422.289063 183.824219 427.933594 165.65625 425.261719 145.207031 L 423.644531 132.84375 L 415.882813 134.617188 C 427.605469 121.046875 433.246094 102.882813 430.574219 82.429688 L 428.957031 70.066406 L 416.804688 72.847656 C 408.125 74.832031 400.402344 78.128906 393.738281 82.503906 C 406.609375 59.703125 405.558594 32.667969 388.066406 9.832031 L 380.488281 -0.0664063 L 371.351563 8.414063 C 350.332031 27.929688 344.511719 54.3125 353.226563 78.933594 C 347.421875 73.570313 340.421875 69.074219 332.277344 65.691406 L 320.765625 60.910156 L 317.09375 72.824219 C 311.019531 92.535156 313.53125 111.390625 322.800781 126.738281 L 315.449219 123.683594 L 311.78125 135.601563 C 305.707031 155.3125 308.214844 174.167969 317.488281 189.515625 L 310.136719 186.460938 L 306.464844 198.375 C 295.757813 233.128906 311.722656 265.230469 344.421875 280.117188 L 355.871094 285.328125 L 355.894531 285.585938 L 356.238281 285.496094 L 356.5625 285.644531 L 356.628906 285.394531 Z M 368.792969 282.179688 "/>
<path style=" stroke:none;fill-rule:evenodd;fill:rgb(100%,96.484375%,52.146912%);fill-opacity:1;" d="M 347.355469 273.667969 C 317.839844 260.230469 303.601563 231.742188 313.238281 200.460938 L 314.613281 195.992188 L 318.933594 197.785156 C 349.207031 210.359375 361.707031 239.683594 353.222656 270.910156 L 351.910156 275.738281 Z M 366.984375 275.328125 C 398.339844 267.042969 417.160156 241.355469 412.921875 208.898438 L 412.3125 204.261719 L 407.757813 205.304688 C 375.800781 212.613281 358.546875 239.414063 361.664063 271.625 L 362.144531 276.605469 Z M 372.296875 212.550781 C 403.652344 204.269531 422.472656 178.582031 418.234375 146.125 L 417.628906 141.488281 L 413.070313 142.53125 C 381.113281 149.835938 363.863281 176.640625 366.976563 208.851563 L 367.460938 213.832031 Z M 352.667969 210.890625 C 323.152344 197.453125 308.914063 168.96875 318.550781 137.6875 L 319.929688 133.21875 L 324.246094 135.011719 C 354.519531 147.585938 367.019531 176.90625 358.535156 208.136719 L 357.222656 212.964844 Z M 377.609375 149.777344 C 408.964844 141.492188 427.789063 115.804688 423.546875 83.347656 L 422.941406 78.710938 L 418.382813 79.753906 C 386.429688 87.0625 369.175781 113.863281 372.292969 146.074219 L 372.773438 151.054688 Z M 357.984375 148.117188 C 328.464844 134.679688 314.230469 106.191406 323.867188 74.910156 L 325.242188 70.441406 L 329.558594 72.234375 C 359.832031 84.808594 372.332031 114.132813 363.847656 145.359375 L 362.535156 150.1875 Z M 369.117188 94.066406 C 350.273438 67.667969 352.1875 35.878906 376.171875 13.609375 L 379.597656 10.425781 L 382.441406 14.140625 C 402.371094 40.164063 398.535156 71.808594 375.574219 94.609375 L 372.023438 98.136719 Z M 369.117188 94.066406 "/>
<path style=" stroke:none;fill-rule:evenodd;fill:rgb(100%,79.6875%,1.567078%);fill-opacity:1;" d="M 349.117188 269.796875 C 320.21875 256.640625 308.710938 229.609375 317.300781 201.714844 C 344.257813 212.910156 357.445313 239.15625 349.117188 269.796875 Z M 365.898438 271.21875 C 396.59375 263.105469 412.484375 238.390625 408.703125 209.449219 C 380.25 215.957031 362.839844 239.613281 365.898438 271.21875 Z M 371.210938 208.441406 C 401.910156 200.332031 417.800781 175.617188 414.019531 146.675781 C 385.5625 153.179688 368.152344 176.835938 371.210938 208.441406 Z M 354.429688 207.019531 C 325.53125 193.867188 314.023438 166.832031 322.617188 138.9375 C 349.570313 150.132813 362.757813 176.378906 354.429688 207.019531 Z M 376.523438 145.667969 C 407.222656 137.554688 423.113281 112.839844 419.332031 83.898438 C 390.878906 90.40625 373.46875 114.0625 376.523438 145.667969 Z M 359.746094 144.246094 C 330.847656 131.089844 319.335938 104.058594 327.929688 76.164063 C 354.882813 87.359375 368.070313 113.605469 359.746094 144.246094 Z M 372.578125 91.59375 C 354.128906 65.753906 357.675781 36.585938 379.066406 16.722656 C 396.8125 39.898438 395.109375 69.222656 372.578125 91.59375 Z M 372.578125 91.59375 "/>
<path style=" stroke:none;fill-rule:evenodd;fill:rgb(13.719177%,12.156677%,12.547302%);fill-opacity:1;" d="M 286.375 310.023438 C 311.285156 288.460938 317.011719 256.082031 298.589844 228.28125 L 292.273438 218.746094 L 286.597656 223.339844 C 290.777344 207.433594 288.101563 190.195313 277.652344 174.425781 L 271.335938 164.894531 L 265.660156 169.488281 C 269.839844 153.582031 267.164063 136.34375 256.714844 120.574219 L 250.398438 111.042969 L 241.507813 118.234375 C 235.160156 123.367188 230.128906 129.199219 226.402344 135.492188 C 227.808594 111.515625 216.046875 89.671875 192.425781 77.914063 L 182.191406 72.816406 L 178.085938 83.488281 C 168.640625 108.039063 174.484375 132.117188 191.59375 148.882813 C 184.652344 146.808594 177.070313 145.925781 168.996094 146.425781 L 157.585938 147.128906 L 159.367188 158.421875 C 162.3125 177.109375 171.984375 191.628906 185.808594 200.53125 L 178.523438 200.980469 L 180.304688 212.277344 C 183.25 230.960938 192.917969 245.480469 206.746094 254.382813 L 199.457031 254.832031 L 201.238281 266.128906 C 206.433594 299.074219 232.53125 319.078125 265.464844 318.152344 L 277 317.832031 L 277.125 318.03125 L 277.371094 317.820313 L 277.695313 317.8125 L 277.648438 317.578125 Z M 286.375 310.023438 "/>
<path style=" stroke:none;fill-rule:evenodd;fill:rgb(100%,96.484375%,52.146912%);fill-opacity:1;" d="M 265.28125 311.65625 C 235.550781 312.492188 212.335938 294.769531 207.660156 265.117188 L 206.992188 260.878906 L 211.273438 260.617188 C 241.277344 258.765625 263.398438 277.878906 269.003906 307.023438 L 269.867188 311.527344 Z M 282.121094 305.109375 C 304.609375 285.644531 309.753906 256.894531 293.171875 231.871094 L 290.804688 228.292969 L 287.46875 230.992188 C 264.09375 249.894531 260.691406 278.929688 276.246094 304.207031 L 278.652344 308.113281 Z M 261.183594 251.257813 C 283.671875 231.792969 288.816406 203.042969 272.234375 178.015625 L 269.867188 174.441406 L 266.53125 177.140625 C 243.15625 196.042969 239.753906 225.078125 255.308594 250.355469 L 257.714844 254.261719 Z M 244.347656 257.804688 C 214.613281 258.640625 191.398438 240.914063 186.722656 211.261719 L 186.054688 207.027344 L 190.335938 206.761719 C 220.339844 204.914063 242.460938 224.023438 248.066406 253.171875 L 248.933594 257.675781 Z M 240.246094 197.40625 C 262.734375 177.941406 267.878906 149.191406 251.296875 124.164063 L 248.929688 120.589844 L 245.59375 123.285156 C 222.21875 142.191406 218.816406 171.226563 234.371094 196.503906 L 236.777344 200.410156 Z M 223.410156 203.953125 C 193.675781 204.789063 170.460938 187.0625 165.785156 157.410156 L 165.117188 153.175781 L 169.398438 152.910156 C 199.402344 151.0625 221.527344 170.171875 227.128906 199.320313 L 227.996094 203.824219 Z M 210.785156 154.941406 C 184.617188 140.796875 173.375 113.839844 184.152344 85.824219 L 185.691406 81.820313 L 189.53125 83.730469 C 216.441406 97.132813 226.042969 124.746094 216.324219 152.789063 L 214.820313 157.121094 Z M 210.785156 154.941406 "/>
<path style=" stroke:none;fill-rule:evenodd;fill:rgb(100%,79.6875%,1.567078%);fill-opacity:1;" d="M 265.171875 307.757813 C 236.0625 308.578125 215.683594 290.949219 211.511719 264.507813 C 238.230469 262.859375 259.675781 279.164063 265.171875 307.757813 Z M 279.566406 302.164063 C 301.582031 283.105469 304.707031 256.339844 289.921875 234.023438 C 269.105469 250.855469 264.304688 277.363281 279.566406 302.164063 Z M 258.628906 248.3125 C 280.648438 229.25 283.769531 202.484375 268.984375 180.171875 C 248.171875 197.003906 243.367188 223.511719 258.628906 248.3125 Z M 244.238281 253.90625 C 215.128906 254.726563 194.746094 237.097656 190.574219 210.65625 C 217.292969 209.007813 238.738281 225.3125 244.238281 253.90625 Z M 237.691406 194.460938 C 259.710938 175.398438 262.832031 148.632813 248.046875 126.320313 C 227.234375 143.152344 222.429688 169.660156 237.691406 194.460938 Z M 223.300781 200.054688 C 194.191406 200.871094 173.808594 183.246094 169.636719 156.804688 C 196.355469 155.15625 217.800781 171.457031 223.300781 200.054688 Z M 212.636719 151.511719 C 187.019531 137.664063 178.183594 112.207031 187.792969 87.222656 C 211.753906 99.15625 222.175781 123.996094 212.636719 151.511719 Z M 212.636719 151.511719 "/>
<path style=" stroke:none;fill-rule:evenodd;fill:rgb(13.719177%,12.156677%,12.547302%);fill-opacity:1;" d="M 215.050781 362.195313 C 233.007813 335.742188 230.277344 303.949219 206.046875 282.492188 L 197.738281 275.136719 L 193.566406 280.863281 C 193.507813 264.902344 186.683594 249.410156 172.941406 237.242188 L 164.632813 229.882813 L 160.460938 235.609375 C 160.402344 219.652344 153.578125 204.15625 139.835938 191.988281 L 131.527344 184.632813 L 124.988281 193.597656 C 120.320313 200 117.066406 206.726563 115.144531 213.558594 C 110.464844 190.730469 93.96875 173.191406 68.882813 168.078125 L 58.007813 165.859375 L 56.832031 176.894531 C 54.121094 202.273438 65.625 223.386719 85.859375 234.828125 C 78.832031 234.617188 71.503906 235.6875 64.058594 238.175781 L 53.535156 241.691406 L 58.03125 251.835938 C 65.46875 268.617188 78.167969 279.8125 93.359375 284.699219 L 86.640625 286.945313 L 91.136719 297.085938 C 98.574219 313.871094 111.277344 325.0625 126.46875 329.949219 L 119.746094 332.195313 L 124.242188 342.339844 C 137.359375 371.929688 166.832031 384.15625 197.480469 375.046875 L 208.210938 371.859375 L 208.378906 372.015625 L 208.558594 371.753906 L 208.859375 371.664063 L 208.761719 371.457031 Z M 215.050781 362.195313 "/>
<path style=" stroke:none;fill-rule:evenodd;fill:rgb(100%,96.484375%,52.146912%);fill-opacity:1;" d="M 195.683594 369.003906 C 168.015625 377.226563 141.816406 366.417969 130.007813 339.785156 L 128.324219 335.980469 L 132.269531 334.660156 C 159.941406 325.417969 185.464844 337.800781 198.011719 363.726563 L 199.949219 367.734375 Z M 209.832031 358.652344 C 226.042969 334.773438 223.675781 306.527344 201.867188 287.214844 L 198.75 284.457031 L 196.296875 287.816406 C 179.113281 311.390625 183.1875 339.46875 204.097656 359.273438 L 207.332031 362.335938 Z M 176.722656 313.398438 C 192.9375 289.519531 190.566406 261.277344 168.757813 241.960938 L 165.644531 239.203125 L 163.191406 242.566406 C 146.007813 266.140625 150.082031 294.214844 170.992188 314.019531 L 174.222656 317.082031 Z M 162.578125 323.75 C 134.910156 331.972656 108.707031 321.164063 96.902344 294.53125 L 95.21875 290.726563 L 99.164063 289.410156 C 126.835938 280.167969 152.359375 292.550781 164.90625 318.472656 L 166.84375 322.480469 Z M 143.617188 268.148438 C 159.832031 244.265625 157.460938 216.023438 135.652344 196.710938 L 132.539063 193.953125 L 130.085938 197.3125 C 112.898438 220.886719 116.976563 248.960938 137.886719 268.769531 L 141.117188 271.832031 Z M 129.46875 278.496094 C 101.804688 286.722656 75.601563 275.910156 63.796875 249.28125 L 62.109375 245.476563 L 66.058594 244.15625 C 93.726563 234.914063 119.25 247.296875 131.796875 273.222656 L 133.738281 277.230469 Z M 105.367188 235.703125 C 77.296875 228.992188 60.011719 206.53125 63.101563 177.5625 L 63.542969 173.425781 L 67.621094 174.257813 C 96.207031 180.085938 112.121094 203.574219 110.023438 232.296875 L 109.699219 236.738281 Z M 105.367188 235.703125 "/>
<path style=" stroke:none;fill-rule:evenodd;fill:rgb(100%,79.6875%,1.567078%);fill-opacity:1;" d="M 194.605469 365.375 C 167.515625 373.425781 143.996094 362 133.46875 338.25 C 158.105469 330.019531 182.292969 339.9375 194.605469 365.375 Z M 206.699219 356.527344 C 222.574219 333.148438 218.804688 307.269531 199.355469 290.046875 C 184.054688 311.039063 186.183594 337.09375 206.699219 356.527344 Z M 173.59375 311.273438 C 189.46875 287.894531 185.699219 262.019531 166.25 244.796875 C 150.949219 265.785156 153.078125 291.839844 173.59375 311.273438 Z M 161.5 320.121094 C 134.410156 328.171875 110.890625 316.746094 100.363281 293 C 125 284.769531 149.1875 294.6875 161.5 320.121094 Z M 140.488281 266.023438 C 156.359375 242.644531 152.589844 216.765625 133.144531 199.542969 C 117.839844 220.535156 119.972656 246.589844 140.488281 266.023438 Z M 128.390625 274.871094 C 101.304688 282.921875 77.785156 271.496094 67.257813 247.746094 C 91.894531 239.515625 116.082031 249.433594 128.390625 274.871094 Z M 106.25 232.023438 C 78.765625 225.449219 64.109375 203.792969 66.867188 177.964844 C 92.316406 183.15625 108.304688 203.839844 106.25 232.023438 Z M 106.25 232.023438 "/>
<path style=" stroke:none;fill-rule:evenodd;fill:rgb(13.719177%,12.156677%,12.547302%);fill-opacity:1;" d="M 225.097656 582.449219 C 223.441406 589.84375 231.1875 591.71875 234.878906 585.050781 L 268.441406 524.417969 L 325.46875 596.828125 C 340.191406 615.519531 357.273438 611.3125 360.144531 594.765625 L 385 451.410156 L 415.308594 508.59375 C 419.199219 515.941406 426.855469 513.847656 425.007813 505.675781 L 406.84375 425.25 C 405.539063 419.460938 401.253906 418.273438 394.800781 420.324219 L 383.613281 423.878906 C 373.527344 427.082031 375.582031 430.363281 374.816406 434.601563 L 353.5 552.414063 C 350.191406 508.976563 348.984375 466.179688 349.796875 424.871094 C 350.824219 372.976563 355.03125 323.308594 362.289063 277.554688 L 351.117188 275.789063 C 343.789063 321.976563 339.539063 372.152344 338.503906 424.605469 C 337.65625 467.449219 337.929688 511.679688 341.078125 556.453125 C 326.949219 478.082031 304.945313 381.5625 278.238281 307.289063 L 267.578125 311.09375 C 293.59375 383.4375 315.097656 477.351563 329.101563 553.722656 C 312.558594 522.328125 295.441406 492.113281 279.113281 463.613281 C 257.699219 426.238281 235.183594 391.613281 209.746094 360.621094 L 201 367.800781 C 226 398.261719 248.171875 432.375 269.292969 469.234375 C 287.457031 500.941406 304.371094 534.824219 321.9375 570.003906 L 274.085938 510.871094 C 272.316406 508.679688 268.929688 507.507813 264.992188 506.980469 L 253.367188 505.1875 C 246.664063 504.152344 242.597656 504.449219 241.421875 509.683594 Z M 225.097656 582.449219 "/>
<path style=" stroke:none;fill-rule:evenodd;fill:rgb(92.96875%,10.984802%,14.109802%);fill-opacity:1;" d="M 7.542969 362.195313 L 527.40625 217.925781 C 552.121094 259.363281 566.371094 307.59375 566.71875 358.808594 L 46.414063 503.199219 C 21.835938 461.691406 7.726563 413.425781 7.542969 362.195313 Z M 7.542969 362.195313 "/>
<path style=" stroke:none;fill-rule:evenodd;fill:rgb(100%,100%,100%);fill-opacity:1;" d="M 54.816406 432.863281 C 58.710938 447.457031 71.019531 451.992188 85.648438 447.902344 C 103.632813 442.875 110.78125 430.949219 107.726563 420.023438 C 104.359375 407.976563 93.234375 406.351563 84.152344 406.386719 C 74.898438 406.46875 72.195313 406.761719 71.164063 403.0625 C 70.082031 399.1875 73.753906 396.398438 77.710938 395.292969 C 80.550781 394.5 82.847656 394.414063 84.621094 395.121094 C 86.289063 395.769531 87.519531 397.1875 88.167969 399.511719 L 104.175781 395.039063 C 100.417969 379.945313 87.972656 378.230469 74.890625 381.886719 C 62.585938 385.324219 51.597656 394.800781 55.496094 408.738281 C 58.019531 417.773438 65.347656 420.085938 73.773438 420.699219 C 80.769531 421.15625 90.253906 419.246094 91.960938 425.355469 C 92.898438 428.710938 91 432.210938 84.546875 434.015625 C 76.976563 436.132813 72.675781 435.015625 70.820313 428.390625 Z M 113.671875 438.675781 L 128.300781 434.585938 L 125.109375 387.332031 L 110.480469 391.417969 Z M 123.945313 369.5625 L 109.320313 373.652344 L 110.121094 385.488281 L 124.75 381.398438 Z M 135.691406 432.523438 L 150.320313 428.433594 L 148.988281 408.394531 C 148.492188 400.648438 147.140625 391.839844 156.175781 389.3125 C 159.273438 388.449219 162.042969 389.714844 163.027344 393.242188 C 163.507813 394.964844 163.609375 396.976563 163.753906 399.164063 L 165.292969 424.246094 L 179.921875 420.15625 L 178.617188 394.917969 C 178.507813 392.535156 178.289063 387.769531 177.472656 384.847656 C 175.332031 377.1875 169.140625 373.628906 161.136719 375.867188 C 153.308594 378.054688 148.921875 383.269531 147.613281 386.882813 L 147.441406 386.933594 L 147.128906 381.175781 L 132.5 385.265625 Z M 256.617188 332.476563 L 204.46875 347.054688 L 205.566406 361.589844 L 223.636719 356.539063 L 226.894531 407.027344 L 242.898438 402.550781 L 239.640625 352.066406 L 257.710938 347.015625 Z M 255.195313 399.113281 L 270.941406 394.710938 L 269.894531 378.675781 L 254.144531 383.078125 Z M 272.65625 394.234375 L 289.433594 389.542969 L 292.550781 376.796875 L 314.148438 370.757813 L 318.691406 381.363281 L 334.78125 376.867188 L 307.539063 318.242188 L 291.363281 322.761719 Z M 300.773438 337.851563 L 300.945313 337.804688 L 309.453125 359.269531 L 295.425781 363.191406 Z M 335.976563 376.53125 L 351.722656 372.128906 L 350.675781 356.09375 L 334.925781 360.496094 Z M 410.851563 313.203125 C 406.5 296.976563 394.070313 292.660156 378.667969 296.964844 C 357.84375 302.789063 350.328125 322.699219 355.859375 342.492188 C 362.234375 365.296875 379.007813 365.894531 388.734375 363.175781 C 406.632813 358.171875 414.21875 347.144531 413.257813 330.4375 L 397.253906 334.910156 C 397.867188 341.417969 394 347.507813 387.289063 349.382813 C 378.253906 351.910156 374.246094 346.535156 372.035156 338.621094 C 369.316406 328.898438 369.957031 313.59375 382.089844 310.203125 C 389.574219 308.109375 393.949219 311.804688 394.847656 317.675781 Z M 419.941406 353.058594 L 435.691406 348.65625 L 434.640625 332.621094 L 418.894531 337.023438 Z M 494.816406 289.730469 C 490.46875 273.503906 478.035156 269.1875 462.632813 273.492188 C 441.808594 279.316406 434.292969 299.226563 439.824219 319.019531 C 446.199219 341.824219 462.976563 342.421875 472.699219 339.703125 C 490.597656 334.699219 498.183594 323.671875 497.222656 306.964844 L 481.21875 311.4375 C 481.832031 317.945313 477.96875 324.035156 471.253906 325.914063 C 462.21875 328.4375 458.210938 323.0625 456 315.148438 C 453.28125 305.425781 453.921875 290.121094 466.054688 286.730469 C 473.539063 284.636719 477.914063 288.332031 478.8125 294.203125 Z M 503.910156 329.585938 L 519.65625 325.183594 L 518.605469 309.148438 L 502.859375 313.550781 Z M 503.910156 329.585938 "/>
</g>
</svg>
